<svg xmlns="http://www.w3.org/2000/svg" viewBox="0 0 128 128" role="img" aria-label="Sundhedsarkiv">
  <defs>
    <linearGradient id="bg" x1="18" y1="10" x2="110" y2="122" gradientUnits="userSpaceOnUse">
      <stop offset="0" stop-color="#3f8f78"/>
      <stop offset="0.58" stop-color="#2f6f5e"/>
      <stop offset="1" stop-color="#173b33"/>
    </linearGradient>
    <linearGradient id="shield" x1="38" y1="20" x2="90" y2="102" gradientUnits="userSpaceOnUse">
      <stop offset="0" stop-color="#ffffff"/>
      <stop offset="1" stop-color="#e8f4ef"/>
    </linearGradient>
    <filter id="shadow" x="18" y="16" width="92" height="104" filterUnits="userSpaceOnUse">
      <feDropShadow dx="0" dy="8" stdDeviation="7" flood-color="#0b211c" flood-opacity="0.28"/>
    </filter>
  </defs>

  <rect width="128" height="128" rx="30" fill="url(#bg)"/>
  <circle cx="100" cy="28" r="24" fill="#93d1c2" opacity="0.22"/>
  <circle cx="22" cy="110" r="34" fill="#0f2d27" opacity="0.18"/>

  <path
    filter="url(#shadow)"
    d="M64 18 96 30v25c0 23.6-12.7 41.1-32 52-19.3-10.9-32-28.4-32-52V30l32-12Z"
    fill="url(#shield)"
  />
  <path
    d="M64 27 88 36v19.2c0 17.8-8.7 31.2-24 40.9-15.3-9.7-24-23.1-24-40.9V36l24-9Z"
    fill="none"
    stroke="#cfe5dd"
    stroke-width="4"
    stroke-linejoin="round"
  />

  <path
    d="M42 61h13l7-15 10 33 8-18h16"
    fill="none"
    stroke="#2f6f5e"
    stroke-width="8"
    stroke-linecap="round"
    stroke-linejoin="round"
  />
  <path
    d="M51 83h26"
    fill="none"
    stroke="#8bb8aa"
    stroke-width="6"
    stroke-linecap="round"
  />
</svg>
